<svg xmlns="http://www.w3.org/2000/svg" xmlns:xlink="http://www.w3.org/1999/xlink" contentStyleType="text/css" height="1182px" preserveAspectRatio="none" style="width:978px;height:1182px;background:#FFFFFF;" version="1.1" viewBox="0 0 978 1182" width="978px" zoomAndPan="magnify"><defs/><g><ellipse cx="414.2847" cy="20" fill="#222222" rx="10" ry="10" style="stroke:#222222;stroke-width:1.0;"/><rect fill="#F1F1F1" height="33.9688" rx="12.5" ry="12.5" style="stroke:#181818;stroke-width:0.5;" width="171.5469" x="328.5112" y="50"/><text fill="#000000" font-family="sans-serif" font-size="12" lengthAdjust="spacing" textLength="151.5469" x="338.5112" y="71.1387">Declare char* expression</text><rect fill="#F1F1F1" height="33.9688" rx="12.5" ry="12.5" style="stroke:#181818;stroke-width:0.5;" width="245.1113" x="291.729" y="103.9688"/><text fill="#000000" font-family="sans-serif" font-size="12" lengthAdjust="spacing" textLength="225.1113" x="301.729" y="125.1074">Copy postfixExpression to expression</text><rect fill="#F1F1F1" height="33.9688" rx="12.5" ry="12.5" style="stroke:#181818;stroke-width:0.5;" width="187.9766" x="320.2964" y="157.9375"/><text fill="#000000" font-family="sans-serif" font-size="12" lengthAdjust="spacing" textLength="167.9766" x="330.2964" y="179.0762">Create an empty stack (stk)</text><rect fill="#F1F1F1" height="33.9688" rx="12.5" ry="12.5" style="stroke:#181818;stroke-width:0.5;" width="217.5723" x="305.4985" y="211.9063"/><text fill="#000000" font-family="sans-serif" font-size="12" lengthAdjust="spacing" textLength="197.5723" x="315.4985" y="233.0449">Tokenize expression using strtok</text><rect fill="#F1F1F1" height="33.9688" rx="12.5" ry="12.5" style="stroke:#181818;stroke-width:0.5;" width="181.3027" x="323.6333" y="321.5854"/><text fill="#000000" font-family="sans-serif" font-size="12" lengthAdjust="spacing" textLength="161.3027" x="333.6333" y="342.7241">Check if token is a number</text><polygon fill="#F1F1F1" points="364.2341,375.5542,464.3352,375.5542,476.3352,387.5542,464.3352,399.5542,364.2341,399.5542,352.2341,387.5542,364.2341,375.5542" style="stroke:#181818;stroke-width:0.5;"/><text fill="#000000" font-family="sans-serif" font-size="11" lengthAdjust="spacing" textLength="100.1011" x="364.2341" y="391.3623">token is a number</text><text fill="#000000" font-family="sans-serif" font-size="11" lengthAdjust="spacing" textLength="19.0083" x="333.2258" y="384.96">yes</text><text fill="#000000" font-family="sans-serif" font-size="11" lengthAdjust="spacing" textLength="13.7017" x="476.3352" y="384.96">no</text><rect fill="#F1F1F1" height="33.9688" rx="12.5" ry="12.5" style="stroke:#181818;stroke-width:0.5;" width="233.3281" x="38" y="409.5542"/><text fill="#000000" font-family="sans-serif" font-size="12" lengthAdjust="spacing" textLength="213.3281" x="48" y="430.6929">Create new node with token as info</text><rect fill="#F1F1F1" height="33.9688" rx="12.5" ry="12.5" style="stroke:#181818;stroke-width:0.5;" width="148.9414" x="80.1934" y="463.5229"/><text fill="#000000" font-family="sans-serif" font-size="12" lengthAdjust="spacing" textLength="128.9414" x="90.1934" y="484.6616">Push node onto stack</text><rect fill="#F1F1F1" height="33.9688" rx="12.5" ry="12.5" style="stroke:#181818;stroke-width:0.5;" width="254.1758" x="546.8174" y="409.5542"/><text fill="#000000" font-family="sans-serif" font-size="12" lengthAdjust="spacing" textLength="234.1758" x="556.8174" y="430.6929">Check if token is an operator (+, -, *, /)</text><polygon fill="#F1F1F1" points="626.7847,463.5229,721.0259,463.5229,733.0259,475.5229,721.0259,487.5229,626.7847,487.5229,614.7847,475.5229,626.7847,463.5229" style="stroke:#181818;stroke-width:0.5;"/><text fill="#000000" font-family="sans-serif" font-size="11" lengthAdjust="spacing" textLength="94.2412" x="626.7847" y="479.3311">token is operator</text><text fill="#000000" font-family="sans-serif" font-size="11" lengthAdjust="spacing" textLength="19.0083" x="595.7764" y="472.9287">yes</text><text fill="#000000" font-family="sans-serif" font-size="11" lengthAdjust="spacing" textLength="13.7017" x="733.0259" y="472.9287">no</text><rect fill="#F1F1F1" height="33.9688" rx="12.5" ry="12.5" style="stroke:#181818;stroke-width:0.5;" width="277.2617" x="358.3984" y="497.5229"/><text fill="#000000" font-family="sans-serif" font-size="12" lengthAdjust="spacing" textLength="257.2617" x="368.3984" y="518.6616">Pop top two nodes from stack (rLink, lLink)</text><polygon fill="#F1F1F1" points="456.8938,551.4917,537.1648,551.4917,549.1648,563.4917,537.1648,575.4917,456.8938,575.4917,444.8938,563.4917,456.8938,551.4917" style="stroke:#181818;stroke-width:0.5;"/><text fill="#000000" font-family="sans-serif" font-size="11" lengthAdjust="spacing" textLength="80.271" x="456.8938" y="567.2998">stack is empty</text><text fill="#000000" font-family="sans-serif" font-size="11" lengthAdjust="spacing" textLength="19.0083" x="425.8855" y="560.8975">yes</text><text fill="#000000" font-family="sans-serif" font-size="11" lengthAdjust="spacing" textLength="13.7017" x="549.1648" y="560.8975">no</text><rect fill="#F1F1F1" height="33.9688" rx="12.5" ry="12.5" style="stroke:#181818;stroke-width:0.5;" width="150.6172" x="311.3281" y="585.4917"/><text fill="#000000" font-family="sans-serif" font-size="12" lengthAdjust="spacing" textLength="130.6172" x="321.3281" y="606.6304">Error - Stack is empty</text><ellipse cx="386.6367" cy="650.4604" fill="none" rx="11" ry="11" style="stroke:#222222;stroke-width:1.0;"/><ellipse cx="386.6367" cy="650.4604" fill="#222222" rx="6" ry="6" style="stroke:#222222;stroke-width:1.0;"/><rect fill="#F1F1F1" height="33.9688" rx="12.5" ry="12.5" style="stroke:#181818;stroke-width:0.5;" width="250.9531" x="481.9453" y="585.4917"/><text fill="#000000" font-family="sans-serif" font-size="12" lengthAdjust="spacing" textLength="230.9531" x="491.9453" y="606.6304">Create new node with operator as info</text><rect fill="#F1F1F1" height="33.9688" rx="12.5" ry="12.5" style="stroke:#181818;stroke-width:0.5;" width="237.7578" x="488.543" y="639.4604"/><text fill="#000000" font-family="sans-serif" font-size="12" lengthAdjust="spacing" textLength="217.7578" x="498.543" y="660.5991">Link lLink and rLink to the new node</text><rect fill="#F1F1F1" height="33.9688" rx="12.5" ry="12.5" style="stroke:#181818;stroke-width:0.5;" width="177.5586" x="518.6426" y="693.4292"/><text fill="#000000" font-family="sans-serif" font-size="12" lengthAdjust="spacing" textLength="157.5586" x="528.6426" y="714.5679">Push new node onto stack</text><rect fill="#F1F1F1" height="33.9688" rx="12.5" ry="12.5" style="stroke:#181818;stroke-width:0.5;" width="175.7656" x="762.8984" y="497.5229"/><text fill="#000000" font-family="sans-serif" font-size="12" lengthAdjust="spacing" textLength="155.7656" x="772.8984" y="518.6616">Error - unsupported token</text><ellipse cx="850.7813" cy="562.4917" fill="none" rx="11" ry="11" style="stroke:#222222;stroke-width:1.0;"/><ellipse cx="850.7813" cy="562.4917" fill="#222222" rx="6" ry="6" style="stroke:#222222;stroke-width:1.0;"/><polygon fill="#F1F1F1" points="414.2847,737.3979,426.2847,749.3979,414.2847,761.3979,402.2847,749.3979,414.2847,737.3979" style="stroke:#181818;stroke-width:0.5;"/><rect fill="#F1F1F1" height="33.9688" rx="12.5" ry="12.5" style="stroke:#181818;stroke-width:0.5;" width="184.7246" x="321.9224" y="781.3979"/><text fill="#000000" font-family="sans-serif" font-size="12" lengthAdjust="spacing" textLength="164.7246" x="331.9224" y="802.5366">Get next token using strtok</text><polygon fill="#F1F1F1" points="370.4619,265.875,458.1074,265.875,470.1074,277.875,458.1074,289.875,370.4619,289.875,358.4619,277.875,370.4619,265.875" style="stroke:#181818;stroke-width:0.5;"/><text fill="#000000" font-family="sans-serif" font-size="11" lengthAdjust="spacing" textLength="22.5747" x="418.2847" y="300.0854">true</text><text fill="#000000" font-family="sans-serif" font-size="11" lengthAdjust="spacing" textLength="87.6455" x="370.4619" y="281.6831">token != nullptr</text><rect fill="#F1F1F1" height="33.9688" rx="12.5" ry="12.5" style="stroke:#181818;stroke-width:0.5;" width="237.623" x="295.4731" y="857.3667"/><text fill="#000000" font-family="sans-serif" font-size="12" lengthAdjust="spacing" textLength="217.623" x="305.4731" y="878.5054">Check if stack has only one element</text><polygon fill="#F1F1F1" points="351.8027,911.3354,476.7666,911.3354,488.7666,923.3354,476.7666,935.3354,351.8027,935.3354,339.8027,923.3354,351.8027,911.3354" style="stroke:#181818;stroke-width:0.5;"/><text fill="#000000" font-family="sans-serif" font-size="11" lengthAdjust="spacing" textLength="124.9639" x="351.8027" y="927.1436">stack has one element</text><text fill="#000000" font-family="sans-serif" font-size="11" lengthAdjust="spacing" textLength="19.0083" x="320.7944" y="920.7412">yes</text><text fill="#000000" font-family="sans-serif" font-size="11" lengthAdjust="spacing" textLength="13.7017" x="488.7666" y="920.7412">no</text><rect fill="#F1F1F1" height="33.9688" rx="12.5" ry="12.5" style="stroke:#181818;stroke-width:0.5;" width="158.2344" x="204.0474" y="945.3354"/><text fill="#000000" font-family="sans-serif" font-size="12" lengthAdjust="spacing" textLength="138.2344" x="214.0474" y="966.4741">Set root to top of stack</text><rect fill="#F1F1F1" height="33.9688" rx="12.5" ry="12.5" style="stroke:#181818;stroke-width:0.5;" width="77.8672" x="244.231" y="999.3042"/><text fill="#000000" font-family="sans-serif" font-size="12" lengthAdjust="spacing" textLength="57.8672" x="254.231" y="1020.4429">Pop stack</text><rect fill="#F1F1F1" height="33.9688" rx="12.5" ry="12.5" style="stroke:#181818;stroke-width:0.5;" width="326.2461" x="382.2817" y="945.3354"/><text fill="#000000" font-family="sans-serif" font-size="12" lengthAdjust="spacing" textLength="306.2461" x="392.2817" y="966.4741">Error - There was an error creating expression tree</text><rect fill="#F1F1F1" height="33.9688" rx="12.5" ry="12.5" style="stroke:#181818;stroke-width:0.5;" width="118.5781" x="486.1157" y="999.3042"/><text fill="#000000" font-family="sans-serif" font-size="12" lengthAdjust="spacing" textLength="98.5781" x="496.1157" y="1020.4429">Call destroyTree</text><ellipse cx="545.4048" cy="1064.2729" fill="none" rx="11" ry="11" style="stroke:#222222;stroke-width:1.0;"/><ellipse cx="545.4048" cy="1064.2729" fill="#222222" rx="6" ry="6" style="stroke:#222222;stroke-width:1.0;"/><rect fill="#F1F1F1" height="33.9688" rx="12.5" ry="12.5" style="stroke:#181818;stroke-width:0.5;" width="163.9355" x="332.3169" y="1095.2729"/><text fill="#000000" font-family="sans-serif" font-size="12" lengthAdjust="spacing" textLength="143.9355" x="342.3169" y="1116.4116">Delete expression array</text><ellipse cx="414.2847" cy="1160.2417" fill="none" rx="11" ry="11" style="stroke:#222222;stroke-width:1.0;"/><ellipse cx="414.2847" cy="1160.2417" fill="#222222" rx="6" ry="6" style="stroke:#222222;stroke-width:1.0;"/><line style="stroke:#181818;stroke-width:1.0;" x1="414.2847" x2="414.2847" y1="30" y2="50"/><polygon fill="#181818" points="410.2847,40,414.2847,50,418.2847,40,414.2847,44" style="stroke:#181818;stroke-width:1.0;"/><line style="stroke:#181818;stroke-width:1.0;" x1="414.2847" x2="414.2847" y1="83.9688" y2="103.9688"/><polygon fill="#181818" points="410.2847,93.9688,414.2847,103.9688,418.2847,93.9688,414.2847,97.9688" style="stroke:#181818;stroke-width:1.0;"/><line style="stroke:#181818;stroke-width:1.0;" x1="414.2847" x2="414.2847" y1="137.9375" y2="157.9375"/><polygon fill="#181818" points="410.2847,147.9375,414.2847,157.9375,418.2847,147.9375,414.2847,151.9375" style="stroke:#181818;stroke-width:1.0;"/><line style="stroke:#181818;stroke-width:1.0;" x1="414.2847" x2="414.2847" y1="191.9063" y2="211.9063"/><polygon fill="#181818" points="410.2847,201.9063,414.2847,211.9063,418.2847,201.9063,414.2847,205.9063" style="stroke:#181818;stroke-width:1.0;"/><line style="stroke:#181818;stroke-width:1.0;" x1="154.6641" x2="154.6641" y1="443.5229" y2="463.5229"/><polygon fill="#181818" points="150.6641,453.5229,154.6641,463.5229,158.6641,453.5229,154.6641,457.5229" style="stroke:#181818;stroke-width:1.0;"/><line style="stroke:#181818;stroke-width:1.0;" x1="386.6367" x2="386.6367" y1="619.4604" y2="639.4604"/><polygon fill="#181818" points="382.6367,629.4604,386.6367,639.4604,390.6367,629.4604,386.6367,633.4604" style="stroke:#181818;stroke-width:1.0;"/><line style="stroke:#181818;stroke-width:1.0;" x1="607.4219" x2="607.4219" y1="619.4604" y2="639.4604"/><polygon fill="#181818" points="603.4219,629.4604,607.4219,639.4604,611.4219,629.4604,607.4219,633.4604" style="stroke:#181818;stroke-width:1.0;"/><line style="stroke:#181818;stroke-width:1.0;" x1="607.4219" x2="607.4219" y1="673.4292" y2="693.4292"/><polygon fill="#181818" points="603.4219,683.4292,607.4219,693.4292,611.4219,683.4292,607.4219,687.4292" style="stroke:#181818;stroke-width:1.0;"/><line style="stroke:#181818;stroke-width:1.0;" x1="444.8938" x2="386.6367" y1="563.4917" y2="563.4917"/><line style="stroke:#181818;stroke-width:1.0;" x1="386.6367" x2="386.6367" y1="563.4917" y2="585.4917"/><polygon fill="#181818" points="382.6367,575.4917,386.6367,585.4917,390.6367,575.4917,386.6367,579.4917" style="stroke:#181818;stroke-width:1.0;"/><line style="stroke:#181818;stroke-width:1.0;" x1="549.1648" x2="607.4219" y1="563.4917" y2="563.4917"/><line style="stroke:#181818;stroke-width:1.0;" x1="607.4219" x2="607.4219" y1="563.4917" y2="585.4917"/><polygon fill="#181818" points="603.4219,575.4917,607.4219,585.4917,611.4219,575.4917,607.4219,579.4917" style="stroke:#181818;stroke-width:1.0;"/><line style="stroke:#181818;stroke-width:1.0;" x1="607.4219" x2="607.4219" y1="727.3979" y2="749.3979"/><line style="stroke:#181818;stroke-width:1.0;" x1="607.4219" x2="426.2847" y1="749.3979" y2="749.3979"/><polygon fill="#181818" points="436.2847,745.3979,426.2847,749.3979,436.2847,753.3979,432.2847,749.3979" style="stroke:#181818;stroke-width:1.0;"/><line style="stroke:#181818;stroke-width:1.0;" x1="497.0293" x2="497.0293" y1="531.4917" y2="551.4917"/><polygon fill="#181818" points="493.0293,541.4917,497.0293,551.4917,501.0293,541.4917,497.0293,545.4917" style="stroke:#181818;stroke-width:1.0;"/><line style="stroke:#181818;stroke-width:1.0;" x1="850.7813" x2="850.7813" y1="531.4917" y2="551.4917"/><polygon fill="#181818" points="846.7813,541.4917,850.7813,551.4917,854.7813,541.4917,850.7813,545.4917" style="stroke:#181818;stroke-width:1.0;"/><line style="stroke:#181818;stroke-width:1.0;" x1="614.7847" x2="497.0293" y1="475.5229" y2="475.5229"/><line style="stroke:#181818;stroke-width:1.0;" x1="497.0293" x2="497.0293" y1="475.5229" y2="497.5229"/><polygon fill="#181818" points="493.0293,487.5229,497.0293,497.5229,501.0293,487.5229,497.0293,491.5229" style="stroke:#181818;stroke-width:1.0;"/><line style="stroke:#181818;stroke-width:1.0;" x1="733.0259" x2="850.7813" y1="475.5229" y2="475.5229"/><line style="stroke:#181818;stroke-width:1.0;" x1="850.7813" x2="850.7813" y1="475.5229" y2="497.5229"/><polygon fill="#181818" points="846.7813,487.5229,850.7813,497.5229,854.7813,487.5229,850.7813,491.5229" style="stroke:#181818;stroke-width:1.0;"/><line style="stroke:#181818;stroke-width:1.0;" x1="673.9053" x2="673.9053" y1="443.5229" y2="463.5229"/><polygon fill="#181818" points="669.9053,453.5229,673.9053,463.5229,677.9053,453.5229,673.9053,457.5229" style="stroke:#181818;stroke-width:1.0;"/><line style="stroke:#181818;stroke-width:1.0;" x1="352.2341" x2="154.6641" y1="387.5542" y2="387.5542"/><line style="stroke:#181818;stroke-width:1.0;" x1="154.6641" x2="154.6641" y1="387.5542" y2="409.5542"/><polygon fill="#181818" points="150.6641,399.5542,154.6641,409.5542,158.6641,399.5542,154.6641,403.5542" style="stroke:#181818;stroke-width:1.0;"/><line style="stroke:#181818;stroke-width:1.0;" x1="476.3352" x2="673.9053" y1="387.5542" y2="387.5542"/><line style="stroke:#181818;stroke-width:1.0;" x1="673.9053" x2="673.9053" y1="387.5542" y2="409.5542"/><polygon fill="#181818" points="669.9053,399.5542,673.9053,409.5542,677.9053,399.5542,673.9053,403.5542" style="stroke:#181818;stroke-width:1.0;"/><line style="stroke:#181818;stroke-width:1.0;" x1="154.6641" x2="154.6641" y1="497.4917" y2="749.3979"/><line style="stroke:#181818;stroke-width:1.0;" x1="154.6641" x2="402.2847" y1="749.3979" y2="749.3979"/><polygon fill="#181818" points="392.2847,745.3979,402.2847,749.3979,392.2847,753.3979,396.2847,749.3979" style="stroke:#181818;stroke-width:1.0;"/><line style="stroke:#181818;stroke-width:1.0;" x1="414.2847" x2="414.2847" y1="355.5542" y2="375.5542"/><polygon fill="#181818" points="410.2847,365.5542,414.2847,375.5542,418.2847,365.5542,414.2847,369.5542" style="stroke:#181818;stroke-width:1.0;"/><line style="stroke:#181818;stroke-width:1.0;" x1="414.2847" x2="414.2847" y1="761.3979" y2="781.3979"/><polygon fill="#181818" points="410.2847,771.3979,414.2847,781.3979,418.2847,771.3979,414.2847,775.3979" style="stroke:#181818;stroke-width:1.0;"/><line style="stroke:#181818;stroke-width:1.0;" x1="414.2847" x2="414.2847" y1="289.875" y2="321.5854"/><polygon fill="#181818" points="410.2847,311.5854,414.2847,321.5854,418.2847,311.5854,414.2847,315.5854" style="stroke:#181818;stroke-width:1.0;"/><line style="stroke:#181818;stroke-width:1.0;" x1="414.2847" x2="414.2847" y1="815.3667" y2="825.3667"/><line style="stroke:#181818;stroke-width:1.0;" x1="414.2847" x2="952.6641" y1="825.3667" y2="825.3667"/><polygon fill="#181818" points="948.6641,564.0737,952.6641,554.0737,956.6641,564.0737,952.6641,560.0737" style="stroke:#181818;stroke-width:1.0;"/><line style="stroke:#181818;stroke-width:1.0;" x1="952.6641" x2="952.6641" y1="277.875" y2="825.3667"/><line style="stroke:#181818;stroke-width:1.0;" x1="952.6641" x2="470.1074" y1="277.875" y2="277.875"/><polygon fill="#181818" points="480.1074,273.875,470.1074,277.875,480.1074,281.875,476.1074,277.875" style="stroke:#181818;stroke-width:1.0;"/><line style="stroke:#181818;stroke-width:1.0;" x1="358.4619" x2="24" y1="277.875" y2="277.875"/><polygon fill="#181818" points="20,550.0737,24,560.0737,28,550.0737,24,554.0737" style="stroke:#181818;stroke-width:1.0;"/><line style="stroke:#181818;stroke-width:1.0;" x1="24" x2="24" y1="277.875" y2="837.3667"/><line style="stroke:#181818;stroke-width:1.0;" x1="24" x2="414.2847" y1="837.3667" y2="837.3667"/><line style="stroke:#181818;stroke-width:1.0;" x1="414.2847" x2="414.2847" y1="837.3667" y2="857.3667"/><polygon fill="#181818" points="410.2847,847.3667,414.2847,857.3667,418.2847,847.3667,414.2847,851.3667" style="stroke:#181818;stroke-width:1.0;"/><line style="stroke:#181818;stroke-width:1.0;" x1="414.2847" x2="414.2847" y1="245.875" y2="265.875"/><polygon fill="#181818" points="410.2847,255.875,414.2847,265.875,418.2847,255.875,414.2847,259.875" style="stroke:#181818;stroke-width:1.0;"/><line style="stroke:#181818;stroke-width:1.0;" x1="283.1646" x2="283.1646" y1="979.3042" y2="999.3042"/><polygon fill="#181818" points="279.1646,989.3042,283.1646,999.3042,287.1646,989.3042,283.1646,993.3042" style="stroke:#181818;stroke-width:1.0;"/><line style="stroke:#181818;stroke-width:1.0;" x1="545.4048" x2="545.4048" y1="979.3042" y2="999.3042"/><polygon fill="#181818" points="541.4048,989.3042,545.4048,999.3042,549.4048,989.3042,545.4048,993.3042" style="stroke:#181818;stroke-width:1.0;"/><line style="stroke:#181818;stroke-width:1.0;" x1="545.4048" x2="545.4048" y1="1033.2729" y2="1053.2729"/><polygon fill="#181818" points="541.4048,1043.2729,545.4048,1053.2729,549.4048,1043.2729,545.4048,1047.2729" style="stroke:#181818;stroke-width:1.0;"/><line style="stroke:#181818;stroke-width:1.0;" x1="339.8027" x2="283.1646" y1="923.3354" y2="923.3354"/><line style="stroke:#181818;stroke-width:1.0;" x1="283.1646" x2="283.1646" y1="923.3354" y2="945.3354"/><polygon fill="#181818" points="279.1646,935.3354,283.1646,945.3354,287.1646,935.3354,283.1646,939.3354" style="stroke:#181818;stroke-width:1.0;"/><line style="stroke:#181818;stroke-width:1.0;" x1="488.7666" x2="545.4048" y1="923.3354" y2="923.3354"/><line style="stroke:#181818;stroke-width:1.0;" x1="545.4048" x2="545.4048" y1="923.3354" y2="945.3354"/><polygon fill="#181818" points="541.4048,935.3354,545.4048,945.3354,549.4048,935.3354,545.4048,939.3354" style="stroke:#181818;stroke-width:1.0;"/><line style="stroke:#181818;stroke-width:1.0;" x1="283.1646" x2="283.1646" y1="1033.2729" y2="1080.2729"/><line style="stroke:#181818;stroke-width:1.0;" x1="283.1646" x2="414.2847" y1="1080.2729" y2="1080.2729"/><line style="stroke:#181818;stroke-width:1.0;" x1="414.2847" x2="414.2847" y1="1080.2729" y2="1095.2729"/><polygon fill="#181818" points="410.2847,1085.2729,414.2847,1095.2729,418.2847,1085.2729,414.2847,1089.2729" style="stroke:#181818;stroke-width:1.0;"/><line style="stroke:#181818;stroke-width:1.0;" x1="414.2847" x2="414.2847" y1="891.3354" y2="911.3354"/><polygon fill="#181818" points="410.2847,901.3354,414.2847,911.3354,418.2847,901.3354,414.2847,905.3354" style="stroke:#181818;stroke-width:1.0;"/><line style="stroke:#181818;stroke-width:1.0;" x1="414.2847" x2="414.2847" y1="1129.2417" y2="1149.2417"/><polygon fill="#181818" points="410.2847,1139.2417,414.2847,1149.2417,418.2847,1139.2417,414.2847,1143.2417" style="stroke:#181818;stroke-width:1.0;"/><!--SRC=[TLJ1Zfmm3Btp5UuDjhFg7TJJTBMN7Yhj_40wOqf49aQE4KE_lau2xB2pFG32VZm_Fpi4CIn5KV_0ipECSEuCFm7U1iOGBFccg8yqp31GaDRUNhO427s0CHf1C1xmEiWCGSovXp98NpLQu4GzUliNxpw2CLZ_Hu4ir3V5r5c7K4e4mfVlu4Vd1k4ARD0eZrWL0FMnGwMrBMISvemYhx-H6qrhl7n8L22THiePGwI895chnmayNH0cAzr2Q09OtrAJWR_6q6K8UMquzHHJw89AzRJoFOhoG0Eo4M8elnxW-G1F1_XMPTwTp1Nt83FMfq4vzPeeoGZGCbrNR_cdzVq1N7mip9axvvKxZU8JOgL-OLPjp_2smpOR86ZTvMNVxVyTt3hUcPZmKM8MgjPS82cFAwJADf8xUFPz9TzxdnJvYssBpxHjVOq-ZCD0B7Z9Orc_tHfRITPd_OgYHM-oZ76_defA6wgxl8qx-znfk-JTh3TTRuTNzD8KxtF8-ItrOHprcrPb8abswAofVUyrBS3oTj_frkMfGpsraqaRXobuZgE9okzEcZ0cU-kZSGvqZuHfFYt1P4Ws8Vu87Chkb1fcetjHHDW_]--></g></svg>