<svg xmlns="http://www.w3.org/2000/svg" xmlns:xlink="http://www.w3.org/1999/xlink" contentStyleType="text/css" height="996px" preserveAspectRatio="none" style="width:1455px;height:996px;background:#FFFFFF;" version="1.1" viewBox="0 0 1455 996" width="1455px" zoomAndPan="magnify"><defs/><g><ellipse cx="428.2145" cy="20" fill="#222222" rx="10" ry="10" style="stroke:#222222;stroke-width:1.0;"/><rect fill="#F1F1F1" height="33.9688" rx="12.5" ry="12.5" style="stroke:#181818;stroke-width:0.5;" width="536.4688" x="159.9801" y="50"/><text fill="#000000" font-family="sans-serif" font-size="12" lengthAdjust="spacing" textLength="516.4688" x="169.9801" y="71.1387">Check if node-&gt;info matches regex for a number (regex_match(node-&gt;info, "^\d*$"))</text><polygon fill="#F1F1F1" points="368.2248,103.9688,488.2043,103.9688,500.2043,115.9688,488.2043,127.9688,368.2248,127.9688,356.2248,115.9688,368.2248,103.9688" style="stroke:#181818;stroke-width:0.5;"/><text fill="#000000" font-family="sans-serif" font-size="11" lengthAdjust="spacing" textLength="119.9795" x="368.2248" y="119.7769">node-&gt;info is number</text><text fill="#000000" font-family="sans-serif" font-size="11" lengthAdjust="spacing" textLength="19.0083" x="337.2165" y="113.3745">yes</text><text fill="#000000" font-family="sans-serif" font-size="11" lengthAdjust="spacing" textLength="13.7017" x="500.2043" y="113.3745">no</text><rect fill="#F1F1F1" height="33.9688" rx="12.5" ry="12.5" style="stroke:#181818;stroke-width:0.5;" width="367.4961" x="11" y="137.9688"/><text fill="#000000" font-family="sans-serif" font-size="12" lengthAdjust="spacing" textLength="347.4961" x="21" y="159.1074">Convert node-&gt;info to double using std::stod(node-&gt;info)</text><rect fill="#F1F1F1" height="33.9688" rx="12.5" ry="12.5" style="stroke:#181818;stroke-width:0.5;" width="239.1172" x="75.1895" y="191.9375"/><text fill="#000000" font-family="sans-serif" font-size="12" lengthAdjust="spacing" textLength="219.1172" x="85.1895" y="213.0762">Return value (std::stod(node-&gt;info))</text><rect fill="#F1F1F1" height="33.9688" rx="12.5" ry="12.5" style="stroke:#181818;stroke-width:0.5;" width="454.7773" x="434.2923" y="137.9688"/><text fill="#000000" font-family="sans-serif" font-size="12" lengthAdjust="spacing" textLength="434.7773" x="444.2923" y="159.1074">Evaluate left subtree recursively (evaluateExpressionTree(node-&gt;lLink))</text><rect fill="#F1F1F1" height="33.9688" rx="12.5" ry="12.5" style="stroke:#181818;stroke-width:0.5;" width="464.9258" x="429.2181" y="191.9375"/><text fill="#000000" font-family="sans-serif" font-size="12" lengthAdjust="spacing" textLength="444.9258" x="439.2181" y="213.0762">Evaluate right subtree recursively (evaluateExpressionTree(node-&gt;rLink))</text><rect fill="#F1F1F1" height="33.9688" rx="12.5" ry="12.5" style="stroke:#181818;stroke-width:0.5;" width="166.7129" x="578.3245" y="245.9063"/><text fill="#000000" font-family="sans-serif" font-size="12" lengthAdjust="spacing" textLength="146.7129" x="588.3245" y="267.0449">Store left value in lvalue</text><rect fill="#F1F1F1" height="33.9688" rx="12.5" ry="12.5" style="stroke:#181818;stroke-width:0.5;" width="176.8613" x="573.2503" y="299.875"/><text fill="#000000" font-family="sans-serif" font-size="12" lengthAdjust="spacing" textLength="156.8613" x="583.2503" y="321.0137">Store right value in rvalue</text><rect fill="#F1F1F1" height="33.9688" rx="12.5" ry="12.5" style="stroke:#181818;stroke-width:0.5;" width="290.8672" x="516.2474" y="353.8438"/><text fill="#000000" font-family="sans-serif" font-size="12" lengthAdjust="spacing" textLength="270.8672" x="526.2474" y="374.9824">Check if operator is "+" (node-&gt;info == "+")</text><polygon fill="#F1F1F1" points="608.6656,407.8125,714.6964,407.8125,726.6964,419.8125,714.6964,431.8125,608.6656,431.8125,596.6656,419.8125,608.6656,407.8125" style="stroke:#181818;stroke-width:0.5;"/><text fill="#000000" font-family="sans-serif" font-size="11" lengthAdjust="spacing" textLength="106.0308" x="608.6656" y="423.6206">node-&gt;info == "+"</text><text fill="#000000" font-family="sans-serif" font-size="11" lengthAdjust="spacing" textLength="19.0083" x="577.6573" y="417.2183">yes</text><text fill="#000000" font-family="sans-serif" font-size="11" lengthAdjust="spacing" textLength="13.7017" x="726.6964" y="417.2183">no</text><rect fill="#F1F1F1" height="33.9688" rx="12.5" ry="12.5" style="stroke:#181818;stroke-width:0.5;" width="155.8906" x="408.4961" y="441.8125"/><text fill="#000000" font-family="sans-serif" font-size="12" lengthAdjust="spacing" textLength="135.8906" x="418.4961" y="462.9512">Return lvalue + rvalue</text><rect fill="#F1F1F1" height="33.9688" rx="12.5" ry="12.5" style="stroke:#181818;stroke-width:0.5;" width="279.418" x="697.2115" y="441.8125"/><text fill="#000000" font-family="sans-serif" font-size="12" lengthAdjust="spacing" textLength="259.418" x="707.2115" y="462.9512">Check if operator is "-" (node-&gt;info == "-")</text><polygon fill="#F1F1F1" points="786.5289,495.7813,887.3121,495.7813,899.3121,507.7813,887.3121,519.7813,786.5289,519.7813,774.5289,507.7813,786.5289,495.7813" style="stroke:#181818;stroke-width:0.5;"/><text fill="#000000" font-family="sans-serif" font-size="11" lengthAdjust="spacing" textLength="100.7832" x="786.5289" y="511.5894">node-&gt;info == "-"</text><text fill="#000000" font-family="sans-serif" font-size="11" lengthAdjust="spacing" textLength="19.0083" x="755.5206" y="505.187">yes</text><text fill="#000000" font-family="sans-serif" font-size="11" lengthAdjust="spacing" textLength="13.7017" x="899.3121" y="505.187">no</text><rect fill="#F1F1F1" height="33.9688" rx="12.5" ry="12.5" style="stroke:#181818;stroke-width:0.5;" width="150.166" x="594.3867" y="529.7813"/><text fill="#000000" font-family="sans-serif" font-size="12" lengthAdjust="spacing" textLength="130.166" x="604.3867" y="550.9199">Return lvalue - rvalue</text><rect fill="#F1F1F1" height="33.9688" rx="12.5" ry="12.5" style="stroke:#181818;stroke-width:0.5;" width="282.7578" x="862.9924" y="529.7813"/><text fill="#000000" font-family="sans-serif" font-size="12" lengthAdjust="spacing" textLength="262.7578" x="872.9924" y="550.9199">Check if operator is "*" (node-&gt;info == "*")</text><polygon fill="#F1F1F1" points="953.2144,583.75,1055.5283,583.75,1067.5283,595.75,1055.5283,607.75,953.2144,607.75,941.2144,595.75,953.2144,583.75" style="stroke:#181818;stroke-width:0.5;"/><text fill="#000000" font-family="sans-serif" font-size="11" lengthAdjust="spacing" textLength="102.314" x="953.2144" y="599.5581">node-&gt;info == "*"</text><text fill="#000000" font-family="sans-serif" font-size="11" lengthAdjust="spacing" textLength="19.0083" x="922.2061" y="593.1558">yes</text><text fill="#000000" font-family="sans-serif" font-size="11" lengthAdjust="spacing" textLength="13.7017" x="1067.5283" y="593.1558">no</text><rect fill="#F1F1F1" height="33.9688" rx="12.5" ry="12.5" style="stroke:#181818;stroke-width:0.5;" width="151.8359" x="774.5527" y="617.75"/><text fill="#000000" font-family="sans-serif" font-size="12" lengthAdjust="spacing" textLength="131.8359" x="784.5527" y="638.8887">Return lvalue * rvalue</text><rect fill="#F1F1F1" height="33.9688" rx="12.5" ry="12.5" style="stroke:#181818;stroke-width:0.5;" width="278.8438" x="1018.8501" y="617.75"/><text fill="#000000" font-family="sans-serif" font-size="12" lengthAdjust="spacing" textLength="258.8438" x="1028.8501" y="638.8887">Check if operator is "/" (node-&gt;info == "/")</text><polygon fill="#F1F1F1" points="1108.012,671.7188,1208.532,671.7188,1220.532,683.7188,1208.532,695.7188,1108.012,695.7188,1096.012,683.7188,1108.012,671.7188" style="stroke:#181818;stroke-width:0.5;"/><text fill="#000000" font-family="sans-serif" font-size="11" lengthAdjust="spacing" textLength="100.52" x="1108.012" y="687.5269">node-&gt;info == "/"</text><text fill="#000000" font-family="sans-serif" font-size="11" lengthAdjust="spacing" textLength="19.0083" x="1077.0037" y="681.1245">yes</text><text fill="#000000" font-family="sans-serif" font-size="11" lengthAdjust="spacing" textLength="13.7017" x="1220.532" y="681.1245">no</text><rect fill="#F1F1F1" height="33.9688" rx="12.5" ry="12.5" style="stroke:#181818;stroke-width:0.5;" width="149.8789" x="956.3887" y="705.7188"/><text fill="#000000" font-family="sans-serif" font-size="12" lengthAdjust="spacing" textLength="129.8789" x="966.3887" y="726.8574">Return lvalue / rvalue</text><rect fill="#F1F1F1" height="33.9688" rx="12.5" ry="12.5" style="stroke:#181818;stroke-width:0.5;" width="317.8965" x="1126.2676" y="705.7188"/><text fill="#000000" font-family="sans-serif" font-size="12" lengthAdjust="spacing" textLength="297.8965" x="1136.2676" y="726.8574">Display error "Unsupported operator" to std::cout</text><rect fill="#F1F1F1" height="33.9688" rx="12.5" ry="12.5" style="stroke:#181818;stroke-width:0.5;" width="72.0195" x="1249.2061" y="759.6875"/><text fill="#000000" font-family="sans-serif" font-size="12" lengthAdjust="spacing" textLength="52.0195" x="1259.2061" y="780.8262">Return 0</text><polygon fill="#F1F1F1" points="1158.272,799.6563,1170.272,811.6563,1158.272,823.6563,1146.272,811.6563,1158.272,799.6563" style="stroke:#181818;stroke-width:0.5;"/><polygon fill="#F1F1F1" points="1004.3713,829.6563,1016.3713,841.6563,1004.3713,853.6563,992.3713,841.6563,1004.3713,829.6563" style="stroke:#181818;stroke-width:0.5;"/><polygon fill="#F1F1F1" points="836.9205,859.6563,848.9205,871.6563,836.9205,883.6563,824.9205,871.6563,836.9205,859.6563" style="stroke:#181818;stroke-width:0.5;"/><polygon fill="#F1F1F1" points="661.681,889.6563,673.681,901.6563,661.681,913.6563,649.681,901.6563,661.681,889.6563" style="stroke:#181818;stroke-width:0.5;"/><polygon fill="#F1F1F1" points="428.2145,919.6563,440.2145,931.6563,428.2145,943.6563,416.2145,931.6563,428.2145,919.6563" style="stroke:#181818;stroke-width:0.5;"/><ellipse cx="428.2145" cy="974.6563" fill="none" rx="11" ry="11" style="stroke:#222222;stroke-width:1.0;"/><ellipse cx="428.2145" cy="974.6563" fill="#222222" rx="6" ry="6" style="stroke:#222222;stroke-width:1.0;"/><line style="stroke:#181818;stroke-width:1.0;" x1="428.2145" x2="428.2145" y1="30" y2="50"/><polygon fill="#181818" points="424.2145,40,428.2145,50,432.2145,40,428.2145,44" style="stroke:#181818;stroke-width:1.0;"/><line style="stroke:#181818;stroke-width:1.0;" x1="194.748" x2="194.748" y1="171.9375" y2="191.9375"/><polygon fill="#181818" points="190.748,181.9375,194.748,191.9375,198.748,181.9375,194.748,185.9375" style="stroke:#181818;stroke-width:1.0;"/><line style="stroke:#181818;stroke-width:1.0;" x1="661.681" x2="661.681" y1="171.9375" y2="191.9375"/><polygon fill="#181818" points="657.681,181.9375,661.681,191.9375,665.681,181.9375,661.681,185.9375" style="stroke:#181818;stroke-width:1.0;"/><line style="stroke:#181818;stroke-width:1.0;" x1="661.681" x2="661.681" y1="225.9063" y2="245.9063"/><polygon fill="#181818" points="657.681,235.9063,661.681,245.9063,665.681,235.9063,661.681,239.9063" style="stroke:#181818;stroke-width:1.0;"/><line style="stroke:#181818;stroke-width:1.0;" x1="661.681" x2="661.681" y1="279.875" y2="299.875"/><polygon fill="#181818" points="657.681,289.875,661.681,299.875,665.681,289.875,661.681,293.875" style="stroke:#181818;stroke-width:1.0;"/><line style="stroke:#181818;stroke-width:1.0;" x1="661.681" x2="661.681" y1="333.8438" y2="353.8438"/><polygon fill="#181818" points="657.681,343.8438,661.681,353.8438,665.681,343.8438,661.681,347.8438" style="stroke:#181818;stroke-width:1.0;"/><line style="stroke:#181818;stroke-width:1.0;" x1="1285.2158" x2="1285.2158" y1="739.6875" y2="759.6875"/><polygon fill="#181818" points="1281.2158,749.6875,1285.2158,759.6875,1289.2158,749.6875,1285.2158,753.6875" style="stroke:#181818;stroke-width:1.0;"/><line style="stroke:#181818;stroke-width:1.0;" x1="1096.012" x2="1031.3281" y1="683.7188" y2="683.7188"/><line style="stroke:#181818;stroke-width:1.0;" x1="1031.3281" x2="1031.3281" y1="683.7188" y2="705.7188"/><polygon fill="#181818" points="1027.3281,695.7188,1031.3281,705.7188,1035.3281,695.7188,1031.3281,699.7188" style="stroke:#181818;stroke-width:1.0;"/><line style="stroke:#181818;stroke-width:1.0;" x1="1220.532" x2="1285.2158" y1="683.7188" y2="683.7188"/><line style="stroke:#181818;stroke-width:1.0;" x1="1285.2158" x2="1285.2158" y1="683.7188" y2="705.7188"/><polygon fill="#181818" points="1281.2158,695.7188,1285.2158,705.7188,1289.2158,695.7188,1285.2158,699.7188" style="stroke:#181818;stroke-width:1.0;"/><line style="stroke:#181818;stroke-width:1.0;" x1="1031.3281" x2="1031.3281" y1="739.6875" y2="811.6563"/><line style="stroke:#181818;stroke-width:1.0;" x1="1031.3281" x2="1146.272" y1="811.6563" y2="811.6563"/><polygon fill="#181818" points="1136.272,807.6563,1146.272,811.6563,1136.272,815.6563,1140.272,811.6563" style="stroke:#181818;stroke-width:1.0;"/><line style="stroke:#181818;stroke-width:1.0;" x1="1285.2158" x2="1285.2158" y1="793.6563" y2="811.6563"/><line style="stroke:#181818;stroke-width:1.0;" x1="1285.2158" x2="1170.272" y1="811.6563" y2="811.6563"/><polygon fill="#181818" points="1180.272,807.6563,1170.272,811.6563,1180.272,815.6563,1176.272,811.6563" style="stroke:#181818;stroke-width:1.0;"/><line style="stroke:#181818;stroke-width:1.0;" x1="1158.272" x2="1158.272" y1="651.7188" y2="671.7188"/><polygon fill="#181818" points="1154.272,661.7188,1158.272,671.7188,1162.272,661.7188,1158.272,665.7188" style="stroke:#181818;stroke-width:1.0;"/><line style="stroke:#181818;stroke-width:1.0;" x1="941.2144" x2="850.4707" y1="595.75" y2="595.75"/><line style="stroke:#181818;stroke-width:1.0;" x1="850.4707" x2="850.4707" y1="595.75" y2="617.75"/><polygon fill="#181818" points="846.4707,607.75,850.4707,617.75,854.4707,607.75,850.4707,611.75" style="stroke:#181818;stroke-width:1.0;"/><line style="stroke:#181818;stroke-width:1.0;" x1="1067.5283" x2="1158.272" y1="595.75" y2="595.75"/><line style="stroke:#181818;stroke-width:1.0;" x1="1158.272" x2="1158.272" y1="595.75" y2="617.75"/><polygon fill="#181818" points="1154.272,607.75,1158.272,617.75,1162.272,607.75,1158.272,611.75" style="stroke:#181818;stroke-width:1.0;"/><line style="stroke:#181818;stroke-width:1.0;" x1="850.4707" x2="850.4707" y1="651.7188" y2="841.6563"/><line style="stroke:#181818;stroke-width:1.0;" x1="850.4707" x2="992.3713" y1="841.6563" y2="841.6563"/><polygon fill="#181818" points="982.3713,837.6563,992.3713,841.6563,982.3713,845.6563,986.3713,841.6563" style="stroke:#181818;stroke-width:1.0;"/><line style="stroke:#181818;stroke-width:1.0;" x1="1158.272" x2="1158.272" y1="823.6563" y2="841.6563"/><line style="stroke:#181818;stroke-width:1.0;" x1="1158.272" x2="1016.3713" y1="841.6563" y2="841.6563"/><polygon fill="#181818" points="1026.3713,837.6563,1016.3713,841.6563,1026.3713,845.6563,1022.3713,841.6563" style="stroke:#181818;stroke-width:1.0;"/><line style="stroke:#181818;stroke-width:1.0;" x1="1004.3713" x2="1004.3713" y1="563.75" y2="583.75"/><polygon fill="#181818" points="1000.3713,573.75,1004.3713,583.75,1008.3713,573.75,1004.3713,577.75" style="stroke:#181818;stroke-width:1.0;"/><line style="stroke:#181818;stroke-width:1.0;" x1="774.5289" x2="669.4697" y1="507.7813" y2="507.7813"/><line style="stroke:#181818;stroke-width:1.0;" x1="669.4697" x2="669.4697" y1="507.7813" y2="529.7813"/><polygon fill="#181818" points="665.4697,519.7813,669.4697,529.7813,673.4697,519.7813,669.4697,523.7813" style="stroke:#181818;stroke-width:1.0;"/><line style="stroke:#181818;stroke-width:1.0;" x1="899.3121" x2="1004.3713" y1="507.7813" y2="507.7813"/><line style="stroke:#181818;stroke-width:1.0;" x1="1004.3713" x2="1004.3713" y1="507.7813" y2="529.7813"/><polygon fill="#181818" points="1000.3713,519.7813,1004.3713,529.7813,1008.3713,519.7813,1004.3713,523.7813" style="stroke:#181818;stroke-width:1.0;"/><line style="stroke:#181818;stroke-width:1.0;" x1="669.4697" x2="669.4697" y1="563.75" y2="871.6563"/><line style="stroke:#181818;stroke-width:1.0;" x1="669.4697" x2="824.9205" y1="871.6563" y2="871.6563"/><polygon fill="#181818" points="814.9205,867.6563,824.9205,871.6563,814.9205,875.6563,818.9205,871.6563" style="stroke:#181818;stroke-width:1.0;"/><line style="stroke:#181818;stroke-width:1.0;" x1="1004.3713" x2="1004.3713" y1="853.6563" y2="871.6563"/><line style="stroke:#181818;stroke-width:1.0;" x1="1004.3713" x2="848.9205" y1="871.6563" y2="871.6563"/><polygon fill="#181818" points="858.9205,867.6563,848.9205,871.6563,858.9205,875.6563,854.9205,871.6563" style="stroke:#181818;stroke-width:1.0;"/><line style="stroke:#181818;stroke-width:1.0;" x1="836.9205" x2="836.9205" y1="475.7813" y2="495.7813"/><polygon fill="#181818" points="832.9205,485.7813,836.9205,495.7813,840.9205,485.7813,836.9205,489.7813" style="stroke:#181818;stroke-width:1.0;"/><line style="stroke:#181818;stroke-width:1.0;" x1="596.6656" x2="486.4414" y1="419.8125" y2="419.8125"/><line style="stroke:#181818;stroke-width:1.0;" x1="486.4414" x2="486.4414" y1="419.8125" y2="441.8125"/><polygon fill="#181818" points="482.4414,431.8125,486.4414,441.8125,490.4414,431.8125,486.4414,435.8125" style="stroke:#181818;stroke-width:1.0;"/><line style="stroke:#181818;stroke-width:1.0;" x1="726.6964" x2="836.9205" y1="419.8125" y2="419.8125"/><line style="stroke:#181818;stroke-width:1.0;" x1="836.9205" x2="836.9205" y1="419.8125" y2="441.8125"/><polygon fill="#181818" points="832.9205,431.8125,836.9205,441.8125,840.9205,431.8125,836.9205,435.8125" style="stroke:#181818;stroke-width:1.0;"/><line style="stroke:#181818;stroke-width:1.0;" x1="486.4414" x2="486.4414" y1="475.7813" y2="901.6563"/><line style="stroke:#181818;stroke-width:1.0;" x1="486.4414" x2="649.681" y1="901.6563" y2="901.6563"/><polygon fill="#181818" points="639.681,897.6563,649.681,901.6563,639.681,905.6563,643.681,901.6563" style="stroke:#181818;stroke-width:1.0;"/><line style="stroke:#181818;stroke-width:1.0;" x1="836.9205" x2="836.9205" y1="883.6563" y2="901.6563"/><line style="stroke:#181818;stroke-width:1.0;" x1="836.9205" x2="673.681" y1="901.6563" y2="901.6563"/><polygon fill="#181818" points="683.681,897.6563,673.681,901.6563,683.681,905.6563,679.681,901.6563" style="stroke:#181818;stroke-width:1.0;"/><line style="stroke:#181818;stroke-width:1.0;" x1="661.681" x2="661.681" y1="387.8125" y2="407.8125"/><polygon fill="#181818" points="657.681,397.8125,661.681,407.8125,665.681,397.8125,661.681,401.8125" style="stroke:#181818;stroke-width:1.0;"/><line style="stroke:#181818;stroke-width:1.0;" x1="356.2248" x2="194.748" y1="115.9688" y2="115.9688"/><line style="stroke:#181818;stroke-width:1.0;" x1="194.748" x2="194.748" y1="115.9688" y2="137.9688"/><polygon fill="#181818" points="190.748,127.9688,194.748,137.9688,198.748,127.9688,194.748,131.9688" style="stroke:#181818;stroke-width:1.0;"/><line style="stroke:#181818;stroke-width:1.0;" x1="500.2043" x2="661.681" y1="115.9688" y2="115.9688"/><line style="stroke:#181818;stroke-width:1.0;" x1="661.681" x2="661.681" y1="115.9688" y2="137.9688"/><polygon fill="#181818" points="657.681,127.9688,661.681,137.9688,665.681,127.9688,661.681,131.9688" style="stroke:#181818;stroke-width:1.0;"/><line style="stroke:#181818;stroke-width:1.0;" x1="194.748" x2="194.748" y1="225.9063" y2="931.6563"/><line style="stroke:#181818;stroke-width:1.0;" x1="194.748" x2="416.2145" y1="931.6563" y2="931.6563"/><polygon fill="#181818" points="406.2145,927.6563,416.2145,931.6563,406.2145,935.6563,410.2145,931.6563" style="stroke:#181818;stroke-width:1.0;"/><line style="stroke:#181818;stroke-width:1.0;" x1="661.681" x2="661.681" y1="913.6563" y2="931.6563"/><line style="stroke:#181818;stroke-width:1.0;" x1="661.681" x2="440.2145" y1="931.6563" y2="931.6563"/><polygon fill="#181818" points="450.2145,927.6563,440.2145,931.6563,450.2145,935.6563,446.2145,931.6563" style="stroke:#181818;stroke-width:1.0;"/><line style="stroke:#181818;stroke-width:1.0;" x1="428.2145" x2="428.2145" y1="83.9688" y2="103.9688"/><polygon fill="#181818" points="424.2145,93.9688,428.2145,103.9688,432.2145,93.9688,428.2145,97.9688" style="stroke:#181818;stroke-width:1.0;"/><line style="stroke:#181818;stroke-width:1.0;" x1="428.2145" x2="428.2145" y1="943.6563" y2="963.6563"/><polygon fill="#181818" points="424.2145,953.6563,428.2145,963.6563,432.2145,953.6563,428.2145,957.6563" style="stroke:#181818;stroke-width:1.0;"/><!--SRC=[dPDDRuCm38Rl_0eBxG1qY9sfkalNsqxxk5MRA9WIDKsGarJjlr_uAD2INdQ1ABRVzuajAvsHzhnqNM5-05Q2a0N6hqoK4ewPpYjKGBZ7CvII80DXZZia2DgxtpOZ64kUmV_PReleoG_3fMVL9Z5WggyEGLSe8BYW2Zs0T2t52KbFhRM4GfeTHp2AYJqeNQIfqhAO25e7M_o1sf20KyODGk3Ciud85JOmhT-cISuq0iTIWp8xJOZsbRaXnKx8Bn1Wdx8vruHACIc-R4uloj-PE8IT_Q15R5_zHun6iKRlKqlgmRedCG6yFIt7SESrnAcFjxsypb7MI9dDRjhkB_oRIQnMpLNhUJUZFd8xeB7B7Gai1ak0QMSV-iTp_xZpTnB4Su8PGpnXkATuo17DEQ8hXvCaSf7CMA8RbZdDGvvapfECF4wYn4qqOqhkc5nKjkYDgPfd5q0Yo-H_2sNgMfB6OY3rcsri5okNHYyTbYyJ4r6mqhi_Nq_Tl_jwTathFm00]--></g></svg>