<svg xmlns="http://www.w3.org/2000/svg" xmlns:xlink="http://www.w3.org/1999/xlink" contentStyleType="text/css" height="777px" preserveAspectRatio="none" style="width:822px;height:777px;background:#FFFFFF;" version="1.1" viewBox="0 0 822 777" width="822px" zoomAndPan="magnify"><defs/><g><ellipse cx="524.2893" cy="20" fill="#222222" rx="10" ry="10" style="stroke:#222222;stroke-width:1.0;"/><rect fill="#F1F1F1" height="33.9688" rx="12.5" ry="12.5" style="stroke:#181818;stroke-width:0.5;" width="249.8281" x="399.3752" y="50"/><text fill="#000000" font-family="sans-serif" font-size="12" lengthAdjust="spacing" textLength="229.8281" x="409.3752" y="71.1387">Declare variables (binexptree, ifs, ofs)</text><rect fill="#F1F1F1" height="33.9688" rx="12.5" ry="12.5" style="stroke:#181818;stroke-width:0.5;" width="236.4043" x="406.0872" y="103.9688"/><text fill="#000000" font-family="sans-serif" font-size="12" lengthAdjust="spacing" textLength="216.4043" x="416.0872" y="125.1074">Open "RpnData.txt" for reading (ifs)</text><polygon fill="#F1F1F1" points="491.0503,157.9375,557.5283,157.9375,569.5283,169.9375,557.5283,181.9375,491.0503,181.9375,479.0503,169.9375,491.0503,157.9375" style="stroke:#181818;stroke-width:0.5;"/><text fill="#000000" font-family="sans-serif" font-size="11" lengthAdjust="spacing" textLength="66.478" x="491.0503" y="173.7456">ifs.is_open()</text><text fill="#000000" font-family="sans-serif" font-size="11" lengthAdjust="spacing" textLength="19.0083" x="460.042" y="167.3433">yes</text><text fill="#000000" font-family="sans-serif" font-size="11" lengthAdjust="spacing" textLength="13.7017" x="569.5283" y="167.3433">no</text><rect fill="#F1F1F1" height="33.9688" rx="12.5" ry="12.5" style="stroke:#181818;stroke-width:0.5;" width="233.293" x="205.6499" y="191.9375"/><text fill="#000000" font-family="sans-serif" font-size="12" lengthAdjust="spacing" textLength="213.293" x="215.6499" y="213.0762">Open "answers.txt" for writing (ofs)</text><polygon fill="#F1F1F1" points="287.2205,245.9063,357.3723,245.9063,369.3723,257.9063,357.3723,269.9063,287.2205,269.9063,275.2205,257.9063,287.2205,245.9063" style="stroke:#181818;stroke-width:0.5;"/><text fill="#000000" font-family="sans-serif" font-size="11" lengthAdjust="spacing" textLength="70.1519" x="287.2205" y="261.7144">ofs.is_open()</text><text fill="#000000" font-family="sans-serif" font-size="11" lengthAdjust="spacing" textLength="19.0083" x="256.2122" y="255.312">yes</text><text fill="#000000" font-family="sans-serif" font-size="11" lengthAdjust="spacing" textLength="13.7017" x="369.3723" y="255.312">no</text><rect fill="#F1F1F1" height="33.9688" rx="12.5" ry="12.5" style="stroke:#181818;stroke-width:0.5;" width="195.5586" x="72.7734" y="279.9063"/><text fill="#000000" font-family="sans-serif" font-size="12" lengthAdjust="spacing" textLength="175.5586" x="82.7734" y="301.0449">Read line from "RpnData.txt"</text><rect fill="#F1F1F1" height="33.9688" rx="12.5" ry="12.5" style="stroke:#181818;stroke-width:0.5;" width="268.0508" x="36.5273" y="389.5854"/><text fill="#000000" font-family="sans-serif" font-size="12" lengthAdjust="spacing" textLength="248.0508" x="46.5273" y="410.7241">Call binexptree.buildExpressionTree(line)</text><rect fill="#F1F1F1" height="33.9688" rx="12.5" ry="12.5" style="stroke:#181818;stroke-width:0.5;" width="269.1055" x="36" y="443.5542"/><text fill="#000000" font-family="sans-serif" font-size="12" lengthAdjust="spacing" textLength="249.1055" x="46" y="464.6929">Call binexptree.evaluateExpressionTree()</text><rect fill="#F1F1F1" height="33.9688" rx="12.5" ry="12.5" style="stroke:#181818;stroke-width:0.5;" width="190.8828" x="75.1113" y="506.6206"/><text fill="#000000" font-family="sans-serif" font-size="12" lengthAdjust="spacing" textLength="170.8828" x="85.1113" y="527.7593">Write result to "answers.txt"</text><rect fill="#F1F1F1" height="33.9688" rx="12.5" ry="12.5" style="stroke:#181818;stroke-width:0.5;" width="196.8184" x="72.1436" y="560.5894"/><text fill="#000000" font-family="sans-serif" font-size="12" lengthAdjust="spacing" textLength="176.8184" x="82.1436" y="581.728">Call binexptree.destroyTree()</text><polygon fill="#F1F1F1" points="127.5518,333.875,213.5537,333.875,225.5537,345.875,213.5537,357.875,127.5518,357.875,115.5518,345.875,127.5518,333.875" style="stroke:#181818;stroke-width:0.5;"/><text fill="#000000" font-family="sans-serif" font-size="11" lengthAdjust="spacing" textLength="22.5747" x="174.5527" y="368.0854">true</text><text fill="#000000" font-family="sans-serif" font-size="11" lengthAdjust="spacing" textLength="86.002" x="127.5518" y="349.6831">getline(ifs, line)</text><rect fill="#F1F1F1" height="33.9688" rx="12.5" ry="12.5" style="stroke:#181818;stroke-width:0.5;" width="140.082" x="100.5117" y="636.5581"/><text fill="#000000" font-family="sans-serif" font-size="12" lengthAdjust="spacing" textLength="120.082" x="110.5117" y="657.6968">Close "RpnData.txt"</text><rect fill="#F1F1F1" height="33.9688" rx="12.5" ry="12.5" style="stroke:#181818;stroke-width:0.5;" width="137.4629" x="101.8213" y="690.5269"/><text fill="#000000" font-family="sans-serif" font-size="12" lengthAdjust="spacing" textLength="117.4629" x="111.8213" y="711.6655">Close "answers.txt"</text><rect fill="#F1F1F1" height="33.9688" rx="12.5" ry="12.5" style="stroke:#181818;stroke-width:0.5;" width="273.8691" x="337.1055" y="279.9063"/><text fill="#000000" font-family="sans-serif" font-size="12" lengthAdjust="spacing" textLength="253.8691" x="347.1055" y="301.0449">Print "Error opening file to write answers."</text><ellipse cx="474.04" cy="344.875" fill="none" rx="11" ry="11" style="stroke:#222222;stroke-width:1.0;"/><ellipse cx="474.04" cy="344.875" fill="#222222" rx="6" ry="6" style="stroke:#222222;stroke-width:1.0;"/><rect fill="#F1F1F1" height="33.9688" rx="12.5" ry="12.5" style="stroke:#181818;stroke-width:0.5;" width="170.6152" x="640.9746" y="191.9375"/><text fill="#000000" font-family="sans-serif" font-size="12" lengthAdjust="spacing" textLength="150.6152" x="650.9746" y="213.0762">Print "Error opening file."</text><ellipse cx="726.2822" cy="256.9063" fill="none" rx="11" ry="11" style="stroke:#222222;stroke-width:1.0;"/><ellipse cx="726.2822" cy="256.9063" fill="#222222" rx="6" ry="6" style="stroke:#222222;stroke-width:1.0;"/><ellipse cx="524.2893" cy="755.4956" fill="none" rx="11" ry="11" style="stroke:#222222;stroke-width:1.0;"/><ellipse cx="524.2893" cy="755.4956" fill="#222222" rx="6" ry="6" style="stroke:#222222;stroke-width:1.0;"/><line style="stroke:#181818;stroke-width:1.0;" x1="524.2893" x2="524.2893" y1="30" y2="50"/><polygon fill="#181818" points="520.2893,40,524.2893,50,528.2893,40,524.2893,44" style="stroke:#181818;stroke-width:1.0;"/><line style="stroke:#181818;stroke-width:1.0;" x1="524.2893" x2="524.2893" y1="83.9688" y2="103.9688"/><polygon fill="#181818" points="520.2893,93.9688,524.2893,103.9688,528.2893,93.9688,524.2893,97.9688" style="stroke:#181818;stroke-width:1.0;"/><line style="stroke:#181818;stroke-width:1.0;" x1="170.5527" x2="170.5527" y1="423.5542" y2="443.5542"/><polygon fill="#181818" points="166.5527,433.5542,170.5527,443.5542,174.5527,433.5542,170.5527,437.5542" style="stroke:#181818;stroke-width:1.0;"/><line style="stroke:#181818;stroke-width:1.0;" x1="170.5527" x2="170.5527" y1="477.5229" y2="506.6206"/><polygon fill="#181818" points="166.5527,496.6206,170.5527,506.6206,174.5527,496.6206,170.5527,500.6206" style="stroke:#181818;stroke-width:1.0;"/><line style="stroke:#181818;stroke-width:1.0;" x1="170.5527" x2="170.5527" y1="540.5894" y2="560.5894"/><polygon fill="#181818" points="166.5527,550.5894,170.5527,560.5894,174.5527,550.5894,170.5527,554.5894" style="stroke:#181818;stroke-width:1.0;"/><line style="stroke:#181818;stroke-width:1.0;" x1="170.5527" x2="170.5527" y1="357.875" y2="389.5854"/><polygon fill="#181818" points="166.5527,379.5854,170.5527,389.5854,174.5527,379.5854,170.5527,383.5854" style="stroke:#181818;stroke-width:1.0;"/><line style="stroke:#181818;stroke-width:1.0;" x1="170.5527" x2="170.5527" y1="594.5581" y2="604.5581"/><line style="stroke:#181818;stroke-width:1.0;" x1="170.5527" x2="317.1055" y1="604.5581" y2="604.5581"/><polygon fill="#181818" points="313.1055,486.6206,317.1055,476.6206,321.1055,486.6206,317.1055,482.6206" style="stroke:#181818;stroke-width:1.0;"/><line style="stroke:#181818;stroke-width:1.0;" x1="317.1055" x2="317.1055" y1="345.875" y2="604.5581"/><line style="stroke:#181818;stroke-width:1.0;" x1="317.1055" x2="225.5537" y1="345.875" y2="345.875"/><polygon fill="#181818" points="235.5537,341.875,225.5537,345.875,235.5537,349.875,231.5537,345.875" style="stroke:#181818;stroke-width:1.0;"/><line style="stroke:#181818;stroke-width:1.0;" x1="115.5518" x2="24" y1="345.875" y2="345.875"/><polygon fill="#181818" points="20,472.6206,24,482.6206,28,472.6206,24,476.6206" style="stroke:#181818;stroke-width:1.0;"/><line style="stroke:#181818;stroke-width:1.0;" x1="24" x2="24" y1="345.875" y2="616.5581"/><line style="stroke:#181818;stroke-width:1.0;" x1="24" x2="170.5527" y1="616.5581" y2="616.5581"/><line style="stroke:#181818;stroke-width:1.0;" x1="170.5527" x2="170.5527" y1="616.5581" y2="636.5581"/><polygon fill="#181818" points="166.5527,626.5581,170.5527,636.5581,174.5527,626.5581,170.5527,630.5581" style="stroke:#181818;stroke-width:1.0;"/><line style="stroke:#181818;stroke-width:1.0;" x1="170.5527" x2="170.5527" y1="313.875" y2="333.875"/><polygon fill="#181818" points="166.5527,323.875,170.5527,333.875,174.5527,323.875,170.5527,327.875" style="stroke:#181818;stroke-width:1.0;"/><line style="stroke:#181818;stroke-width:1.0;" x1="170.5527" x2="170.5527" y1="670.5269" y2="690.5269"/><polygon fill="#181818" points="166.5527,680.5269,170.5527,690.5269,174.5527,680.5269,170.5527,684.5269" style="stroke:#181818;stroke-width:1.0;"/><line style="stroke:#181818;stroke-width:1.0;" x1="474.04" x2="474.04" y1="313.875" y2="333.875"/><polygon fill="#181818" points="470.04,323.875,474.04,333.875,478.04,323.875,474.04,327.875" style="stroke:#181818;stroke-width:1.0;"/><line style="stroke:#181818;stroke-width:1.0;" x1="275.2205" x2="170.5527" y1="257.9063" y2="257.9063"/><line style="stroke:#181818;stroke-width:1.0;" x1="170.5527" x2="170.5527" y1="257.9063" y2="279.9063"/><polygon fill="#181818" points="166.5527,269.9063,170.5527,279.9063,174.5527,269.9063,170.5527,273.9063" style="stroke:#181818;stroke-width:1.0;"/><line style="stroke:#181818;stroke-width:1.0;" x1="369.3723" x2="474.04" y1="257.9063" y2="257.9063"/><line style="stroke:#181818;stroke-width:1.0;" x1="474.04" x2="474.04" y1="257.9063" y2="279.9063"/><polygon fill="#181818" points="470.04,269.9063,474.04,279.9063,478.04,269.9063,474.04,273.9063" style="stroke:#181818;stroke-width:1.0;"/><line style="stroke:#181818;stroke-width:1.0;" x1="170.5527" x2="170.5527" y1="724.4956" y2="729.4956"/><line style="stroke:#181818;stroke-width:1.0;" x1="170.5527" x2="524.2893" y1="729.4956" y2="729.4956"/><line style="stroke:#181818;stroke-width:1.0;" x1="524.2893" x2="524.2893" y1="729.4956" y2="744.4956"/><polygon fill="#181818" points="520.2893,734.4956,524.2893,744.4956,528.2893,734.4956,524.2893,738.4956" style="stroke:#181818;stroke-width:1.0;"/><line style="stroke:#181818;stroke-width:1.0;" x1="322.2964" x2="322.2964" y1="225.9063" y2="245.9063"/><polygon fill="#181818" points="318.2964,235.9063,322.2964,245.9063,326.2964,235.9063,322.2964,239.9063" style="stroke:#181818;stroke-width:1.0;"/><line style="stroke:#181818;stroke-width:1.0;" x1="726.2822" x2="726.2822" y1="225.9063" y2="245.9063"/><polygon fill="#181818" points="722.2822,235.9063,726.2822,245.9063,730.2822,235.9063,726.2822,239.9063" style="stroke:#181818;stroke-width:1.0;"/><line style="stroke:#181818;stroke-width:1.0;" x1="479.0503" x2="322.2964" y1="169.9375" y2="169.9375"/><line style="stroke:#181818;stroke-width:1.0;" x1="322.2964" x2="322.2964" y1="169.9375" y2="191.9375"/><polygon fill="#181818" points="318.2964,181.9375,322.2964,191.9375,326.2964,181.9375,322.2964,185.9375" style="stroke:#181818;stroke-width:1.0;"/><line style="stroke:#181818;stroke-width:1.0;" x1="569.5283" x2="726.2822" y1="169.9375" y2="169.9375"/><line style="stroke:#181818;stroke-width:1.0;" x1="726.2822" x2="726.2822" y1="169.9375" y2="191.9375"/><polygon fill="#181818" points="722.2822,181.9375,726.2822,191.9375,730.2822,181.9375,726.2822,185.9375" style="stroke:#181818;stroke-width:1.0;"/><line style="stroke:#181818;stroke-width:1.0;" x1="524.2893" x2="524.2893" y1="137.9375" y2="157.9375"/><polygon fill="#181818" points="520.2893,147.9375,524.2893,157.9375,528.2893,147.9375,524.2893,151.9375" style="stroke:#181818;stroke-width:1.0;"/><!--SRC=[VP5DRW8n38NtEON5AYCX3i0iWNKhLAdBAdGSY9Gc8zl3mEthP43yg7Hd9NwV_PvP78anopL-HqS8HqV1xI8os5r8UEg54ESGFCyXUsvQitphCS5iswUr4xUGayp0Pm92ruMq1njgM_2rMWJ-oYgmJGDoKA4z8pS6u89nYKSalc562b8nqpI00ih_W1IrrT4GTLtmb7yUTsjhotW84S7kKKgRhNPAfR2WLeK6d5XAMxaOuMP-iHj2x3Qddf0vvFIXRxPgsrSAFBeuEC4dqKtmgIPH4-CX2aX-ZE4bjaCMokTx5gQkMfjoMCNC-9Vzwy_p68pwQbE-vFXE8GdCDaHwY19sEOGloUcEOztvIhY0MN9lwXh1ctlQQzOahS99Pahz2m00]--></g></svg>